<svg width="57" height="16" viewBox="0 0 57 16" fill="none" xmlns="http://www.w3.org/2000/svg">
<path d="M3.54419 12.2344L0 3.95398H2.36809L4.64082 9.46893L6.89766 3.95398H9.21807L5.65799 12.2344H3.54419Z" fill="#FF5454"/>
<path d="M10.0775 12.2344V3.95398H12.2549V12.2344H10.0775ZM11.1583 2.9686C10.8192 2.9686 10.5279 2.84675 10.2842 2.60306C10.0405 2.35936 9.91861 2.06798 9.91861 1.72893C9.91861 1.37928 10.0405 1.0879 10.2842 0.854802C10.5279 0.611106 10.8192 0.489258 11.1583 0.489258C11.5079 0.489258 11.7993 0.611106 12.0324 0.854802C12.2761 1.0879 12.398 1.37928 12.398 1.72893C12.398 2.06798 12.2761 2.35936 12.0324 2.60306C11.7993 2.84675 11.5079 2.9686 11.1583 2.9686Z" fill="#FF5454"/>
<path d="M18.1217 15.6355C17.486 15.6355 16.8715 15.5666 16.2781 15.4289C15.6848 15.3017 15.1497 15.1163 14.6729 14.8726L15.4358 13.1879C15.8914 13.4104 16.3364 13.5747 16.7708 13.6806C17.2052 13.7866 17.6397 13.8396 18.0741 13.8396C18.7204 13.8396 19.2078 13.7018 19.5362 13.4263C19.8753 13.1509 20.0448 12.7376 20.0448 12.1867V11.535C19.3667 12.033 18.6091 12.282 17.7721 12.282C16.988 12.282 16.2781 12.0966 15.6424 11.7258C15.0173 11.3443 14.514 10.8304 14.1326 10.1841C13.7617 9.5378 13.5763 8.8226 13.5763 8.03854C13.5763 7.25447 13.7617 6.54458 14.1326 5.90885C14.514 5.27312 15.0279 4.76983 15.6742 4.39899C16.3205 4.01755 17.041 3.82683 17.8357 3.82683C18.2383 3.82683 18.6303 3.88511 19.0118 4.00166C19.3932 4.11821 19.7482 4.28244 20.0766 4.49435V3.95398H22.2222V12.2185C22.2222 13.3098 21.8673 14.1521 21.1574 14.7455C20.4581 15.3388 19.4462 15.6355 18.1217 15.6355ZM18.1059 10.4384C18.5085 10.4384 18.874 10.3748 19.2025 10.2477C19.531 10.11 19.8117 9.91924 20.0448 9.67554V6.43332C19.8117 6.20022 19.5257 6.0201 19.1866 5.89295C18.8581 5.75521 18.5032 5.68634 18.1217 5.68634C17.6661 5.68634 17.2582 5.7923 16.898 6.00421C16.5377 6.20552 16.2516 6.4863 16.0397 6.84655C15.8278 7.1962 15.7219 7.59353 15.7219 8.03854C15.7219 8.49414 15.8225 8.90207 16.0238 9.26232C16.2358 9.62256 16.5218 9.90864 16.8821 10.1206C17.2529 10.3325 17.6608 10.4384 18.1059 10.4384Z" fill="#FF5454"/>
<path d="M23.9376 12.2344V3.95398H26.1149V4.87579C26.3798 4.51554 26.6977 4.24006 27.0685 4.04934C27.4394 3.85862 27.8579 3.76326 28.3241 3.76326C28.7267 3.77386 29.0287 3.83743 29.23 3.95398V5.86117C29.0711 5.787 28.8962 5.73402 28.7055 5.70224C28.5148 5.65985 28.3188 5.63866 28.1175 5.63866C27.6937 5.63866 27.3069 5.74462 26.9573 5.95653C26.6076 6.16844 26.3268 6.47041 26.1149 6.86244V12.2344H23.9376Z" fill="#FF5454"/>
<path d="M32.8307 12.3774C32.2373 12.3774 31.7129 12.2714 31.2573 12.0595C30.8016 11.837 30.4467 11.535 30.1924 11.1536C29.9381 10.7722 29.811 10.3325 29.811 9.83447C29.811 9.03981 30.1076 8.42527 30.701 7.99086C31.3049 7.54585 32.1314 7.32334 33.1803 7.32334C33.9008 7.32334 34.5789 7.4346 35.2147 7.6571V7.05316C35.2147 6.57636 35.0663 6.21612 34.7697 5.97242C34.473 5.72872 34.0386 5.60688 33.4664 5.60688C33.1168 5.60688 32.7406 5.66515 32.338 5.7817C31.9354 5.88766 31.4692 6.05718 30.9394 6.29028L30.1447 4.68507C30.8016 4.3884 31.4268 4.16589 32.0201 4.01755C32.6241 3.86922 33.228 3.79505 33.832 3.79505C34.9445 3.79505 35.808 4.06523 36.4226 4.6056C37.0477 5.13538 37.3602 5.88766 37.3602 6.86244V12.2344H35.2147V11.6463C34.8756 11.9006 34.5101 12.086 34.118 12.2026C33.726 12.3191 33.2969 12.3774 32.8307 12.3774ZM31.8771 9.78679C31.8771 10.1047 32.0148 10.3589 32.2903 10.5497C32.5658 10.7298 32.9313 10.8199 33.3869 10.8199C33.7472 10.8199 34.0809 10.7775 34.3882 10.6927C34.6955 10.5973 34.971 10.4596 35.2147 10.2795V9.0716C34.9498 8.96564 34.6743 8.88618 34.3882 8.8332C34.1021 8.78022 33.7949 8.75373 33.4664 8.75373C32.9684 8.75373 32.5764 8.84909 32.2903 9.03981C32.0148 9.21994 31.8771 9.46893 31.8771 9.78679Z" fill="#FF5454"/>
<path d="M39.0082 15.4766V3.95398H41.1538V4.63739C41.8319 4.10762 42.6159 3.84273 43.506 3.84273C44.29 3.84273 44.9999 4.03345 45.6357 4.41488C46.2714 4.79632 46.7747 5.3102 47.1455 5.95653C47.5269 6.59226 47.7177 7.30745 47.7177 8.10211C47.7177 8.89677 47.5269 9.61727 47.1455 10.2636C46.7641 10.8993 46.2502 11.4079 45.6039 11.7893C44.9575 12.1602 44.237 12.3456 43.4424 12.3456C43.0292 12.3456 42.6318 12.2926 42.2504 12.1867C41.869 12.0701 41.514 11.9059 41.1855 11.694V15.4766H39.0082ZM43.1563 10.502C43.6119 10.502 44.0198 10.396 44.3801 10.1841C44.7509 9.97221 45.0423 9.68614 45.2542 9.32589C45.4661 8.96564 45.5721 8.55772 45.5721 8.10211C45.5721 7.64651 45.4661 7.23858 45.2542 6.87833C45.0423 6.50749 44.7509 6.22141 44.3801 6.0201C44.0198 5.80819 43.6119 5.70224 43.1563 5.70224C42.7537 5.70224 42.3828 5.77111 42.0438 5.90885C41.7153 6.03599 41.4292 6.23201 41.1855 6.4969V9.72322C41.4186 9.95632 41.7047 10.147 42.0438 10.2954C42.3934 10.4331 42.7643 10.502 43.1563 10.502Z" fill="#FF5454"/>
<path d="M49.0501 12.2344V1.10909L51.2275 0.632297V4.63739C51.8526 4.07583 52.6261 3.79505 53.5479 3.79505C54.1942 3.79505 54.7611 3.93809 55.2484 4.22417C55.7464 4.49965 56.1332 4.88638 56.4086 5.38437C56.6841 5.87176 56.8219 6.44392 56.8219 7.10084V12.2344H54.6445V7.4187C54.6445 6.87833 54.4909 6.45451 54.1836 6.14725C53.8763 5.82938 53.4578 5.67045 52.928 5.67045C52.5572 5.67045 52.2287 5.74462 51.9427 5.89295C51.6566 6.03069 51.4182 6.23201 51.2275 6.4969V12.2344H49.0501Z" fill="#FF5454"/>
</svg>
